<svg width="91" height="175" viewBox="0 0 91 175" fill="none" xmlns="http://www.w3.org/2000/svg">
<path d="M-30.5288 18.8214C-17.8082 -6.10481 17.8082 -6.10482 30.5288 18.8213L32.2435 22.1812C37.2236 31.9398 46.5689 38.7296 57.3889 40.4504L61.1141 41.0429C88.7512 45.4383 99.7573 79.3115 79.982 99.1122L77.3165 101.781C69.5744 109.533 66.0048 120.519 67.7118 131.341L68.2995 135.067C72.6595 162.71 43.8452 183.645 18.9028 170.956L15.5407 169.246C5.77572 164.278 -5.77571 164.278 -15.5407 169.246L-18.9028 170.956C-43.8452 183.645 -72.6595 162.71 -68.2995 135.067L-67.7118 131.341C-66.0048 120.519 -69.5744 109.533 -77.3165 101.781L-79.982 99.1122C-99.7573 79.3115 -88.7512 45.4383 -61.1142 41.0429L-57.3889 40.4504C-46.5689 38.7296 -37.2236 31.9398 -32.2435 22.1812L-30.5288 18.8214Z" fill="url(#paint0_linear)"/>
<defs>
<linearGradient id="paint0_linear" x1="0" y1="-41" x2="0" y2="227" gradientUnits="userSpaceOnUse">
<stop stop-color="#EB5757"/>
<stop offset="1" stop-color="#9B51E0"/>
</linearGradient>
</defs>
</svg>
